<?xml version="1.0" encoding="UTF-8"?>
<svg version="1.1" xmlns="http://www.w3.org/2000/svg" width="1024" height="1024">
<path d="M0 0 C337.92 0 675.84 0 1024 0 C1024 337.92 1024 675.84 1024 1024 C686.08 1024 348.16 1024 0 1024 C0 686.08 0 348.16 0 0 Z " fill="#FEFEFE" transform="translate(0,0)"/>
<path d="M0 0 C14.03710464 10.9505144 22.99622768 25.86960937 27.8515625 42.86328125 C28.66238281 42.54101562 29.47320312 42.21875 30.30859375 41.88671875 C40.83628949 38.84564236 53.14684585 39.88690099 62.8515625 44.86328125 C63.69976562 45.28738281 64.54796875 45.71148437 65.421875 46.1484375 C77.98916789 53.04699736 86.32115617 64.08190428 90.43237305 77.80151367 C93.30662217 91.93840003 90.92592517 106.27316692 83.6640625 118.55078125 C75.02369616 131.30910941 63.79624536 139.13666596 48.8515625 142.86328125 C42.94002378 143.74396869 37.17939271 144.03164319 31.20800781 144.07202148 C30.27645874 144.08180527 29.34490967 144.09158905 28.38513184 144.10166931 C25.31666435 144.13144984 22.24824066 144.15297995 19.1796875 144.171875 C17.58823032 144.18173274 17.58823032 144.18173274 15.9646225 144.19178963 C10.33026971 144.22433339 4.69593519 144.24877719 -0.93847656 144.26831055 C-5.54293387 144.28597904 -10.14676198 144.32057124 -14.75097656 144.37084961 C-61.3437945 144.86827095 -61.3437945 144.86827095 -81.57397461 139.21533203 C-94.8365111 135.58849095 -109.16906344 137.11384123 -122.37890625 140.16796875 C-136.37067892 142.74883459 -148.24922943 141.95537991 -160.1484375 133.86328125 C-171.23250113 126.09899445 -178.02722152 114.06403327 -180.76171875 100.9140625 C-182.77507884 85.03088844 -179.89264794 71.64880584 -170.1484375 58.86328125 C-164.60006491 52.06862195 -157.93305323 47.79721808 -150.1484375 43.86328125 C-149.43171875 43.49976563 -148.715 43.13625 -147.9765625 42.76171875 C-138.48756145 38.82635785 -125.5966149 39.71216779 -116.03125 43.01171875 C-114.1484375 43.86328125 -114.1484375 43.86328125 -111.1484375 45.86328125 C-111.1071875 44.66703125 -111.0659375 43.47078125 -111.0234375 42.23828125 C-109.6929643 30.64676131 -103.30608116 20.7521436 -96.1484375 11.86328125 C-95.67921875 11.23035156 -95.21 10.59742188 -94.7265625 9.9453125 C-71.99112354 -19.27641346 -28.58183537 -19.39734981 0 0 Z " fill="#378AD2" transform="translate(300.1484375,376.13671875)"/>
<path d="M0 0 C17.02854843 5.80533571 33.13846015 9.24241435 51.08300781 10.78686523 C57.64239277 11.42013304 62.43848667 12.49072044 68.0625 16 C70.0625 19 70.0625 19 70.0625 21.75 C68.35834154 27.28851498 65.41971081 30.67492051 60.359375 33.51953125 C41.85628725 42.10318292 22.4762744 37.73805231 3.31640625 33.3125 C-1.24859995 32.27876131 -5.27214531 31.67019584 -9.9375 32 C-5.33929738 35.06546842 -0.17827506 36.33165638 5.0625 38 C6.14917969 38.35578125 7.23585937 38.7115625 8.35546875 39.078125 C32.21830999 46.71879579 51.87051795 44.35142618 74.0625 33 C74.69816895 32.6793457 75.33383789 32.35869141 75.98876953 32.02832031 C84.04659923 27.94600899 91.87984705 23.5440557 99.64501953 18.93041992 C108.81474013 13.48907152 118.03740519 8.2989718 127.625 3.625 C128.57004395 3.15465332 129.51508789 2.68430664 130.48876953 2.19970703 C136.83201372 -0.8177748 141.5096966 -2.11847515 148.4375 0.0625 C151.0625 2 151.0625 2 152.3125 5.125 C151.64335909 15.49668407 141.34103957 23.35228248 134.0625 30 C131.35796097 32.33110896 128.61290624 34.58499049 125.81640625 36.8046875 C122.98818004 39.05924513 120.24815223 41.39876109 117.5 43.75 C105.16720203 54.0220066 92.03358068 63.11194961 78.0625 71 C77.15685303 71.52352051 77.15685303 71.52352051 76.23291016 72.05761719 C69.12540341 76.15410846 61.98463 79.61729437 54.25 82.375 C53.5811377 82.61371826 52.91227539 82.85243652 52.22314453 83.09838867 C20.53370624 93.83366151 -11.74899684 83.54725122 -42.34838867 74.27832031 C-61.88854653 68.37396901 -79.43560561 64.22444127 -99.61035156 69.57641602 C-104.68338721 70.89636867 -109.70802317 71.94870228 -114.9375 71 C-124.82945562 64.67658771 -129.30966567 51.52359897 -133.8125 41.125 C-134.1938208 40.24585938 -134.5751416 39.36671875 -134.96801758 38.4609375 C-137.11853839 33.35882566 -138.74546685 28.40806619 -139.9375 23 C-50.72082251 -17.31000293 -50.72082251 -17.31000293 0 0 Z " fill="#08284F" transform="translate(236.9375,532)"/>
<path d="M0 0 C8.18901089 5.58041468 13.34319503 13.22062201 15.8125 22.8125 C17.1138322 35.42922551 15.55749136 46.20707038 7.828125 56.55078125 C1.77770935 63.33991043 -6.31650654 67.28673939 -15.328125 68.09375 C-26.13429286 68.39531748 -34.91547968 65.99404683 -43.1875 58.8125 C-51.33541516 49.06695442 -54.22055179 38.37145823 -53.1875 25.8125 C-51.10934218 15.05865921 -46.81991793 6.90123045 -37.875 0.4375 C-25.64068867 -7.04017756 -12.43278682 -7.10444961 0 0 Z " fill="#08244B" transform="translate(492.1875,494.1875)"/>
<path d="M0 0 C15 0 15 0 18.66796875 3.48828125 C19.56392459 5.065779 20.40173414 6.67732171 21.1875 8.3125 C22.15206736 10.05946622 23.11826185 11.80553485 24.0859375 13.55078125 C24.5612793 14.4526416 25.03662109 15.35450195 25.52636719 16.28369141 C27.90193455 20.66251223 30.61368392 24.81566722 33.3125 29 C34.24763183 30.47819477 35.18125774 31.95734342 36.11328125 33.4375 C39.39928103 38.63106934 42.70046626 43.8150184 46 49 C46.33 32.83 46.66 16.66 47 0 C50.96 0 54.92 0 59 0 C59 23.43 59 46.86 59 71 C54.38 71 49.76 71 45 71 C41.73135857 67.56229091 40.18247252 65.10210963 38 61 C36.63717214 58.79210217 35.23568126 56.61142383 33.83251953 54.42895508 C32.38938307 52.18219604 30.96658337 49.92421701 29.55078125 47.66015625 C24.38648746 39.42796516 19.18932676 31.21643403 14 23 C13.67 38.84 13.34 54.68 13 71 C8.71 71 4.42 71 0 71 C0 47.57 0 24.14 0 0 Z " fill="#07254C" transform="translate(441,386)"/>
<path d="M0 0 C3.96 0 7.92 0 12 0 C12.33 7.59 12.66 15.18 13 23 C14.65 22.01 16.3 21.02 18 20 C25.11899709 17.68564924 31.95000055 18.70036903 38.703125 21.66796875 C44.31796252 24.92419255 47.54403345 30.1084791 50 36 C50.33851072 38.85477376 50.52512831 41.40350304 50.5 44.25 C50.49427979 44.99999268 50.48855957 45.74998535 50.48266602 46.52270508 C50.24656943 53.88939559 48.33290013 59.37860282 43.28515625 64.86328125 C37.34174396 70.31249295 31.91411743 71.4399572 23.95703125 71.33203125 C19.50333349 70.8319463 16.21481329 69.21481329 13 66 C12.67 67.32 12.34 68.64 12 70 C8.04 70 4.08 70 0 70 C0 46.9 0 23.8 0 0 Z " fill="#07234A" transform="translate(518,491)"/>
<path d="M0 0 C3.13300128 1.57274168 4.27970144 3.0158479 5.625 6.25 C6.29595703 5.63511719 6.29595703 5.63511719 6.98046875 5.0078125 C12.29386878 0.27220223 16.09216351 -2.23395419 23.5078125 -1.99609375 C28.83690189 -1.37666085 33.04065241 0.17331706 36.5625 4.3125 C39.93832436 9.12049227 39.7560335 12.68118686 39.72265625 18.4140625 C39.7212413 19.32127045 39.71982635 20.22847839 39.71836853 21.16317749 C39.71276096 24.06715155 39.70020718 26.97104915 39.6875 29.875 C39.68248598 31.84114472 39.6779229 33.80729065 39.67382812 35.7734375 C39.66278906 40.5989879 39.64551935 45.42448097 39.625 50.25 C35.665 50.25 31.705 50.25 27.625 50.25 C27.6156543 49.18040039 27.60630859 48.11080078 27.59667969 47.00878906 C27.55676488 43.0350603 27.49100279 39.06210456 27.41748047 35.08886719 C27.38927933 33.37021831 27.36806046 31.65143995 27.35400391 29.93261719 C27.33256167 27.45961253 27.28590844 24.98816325 27.234375 22.515625 C27.23314636 21.74881409 27.23191772 20.98200317 27.23065186 20.19195557 C27.13491477 16.6940805 26.89889128 14.62276793 24.80175781 11.76855469 C21.56066939 9.50749928 19.48080489 9.6411887 15.625 10.25 C11.98937206 13.00016646 10.75733331 14.49132497 9.96557617 19.03051758 C9.92478975 20.48470349 9.91023537 21.93979402 9.91796875 23.39453125 C9.90284744 24.16431808 9.88772614 24.93410492 9.87214661 25.72721863 C9.82934737 28.17261218 9.8204399 30.6167696 9.8125 33.0625 C9.78934939 34.72594414 9.76398287 36.38935902 9.73632812 38.05273438 C9.67355353 42.11859846 9.64115751 46.18369425 9.625 50.25 C5.335 50.25 1.045 50.25 -3.375 50.25 C-3.3843457 49.18040039 -3.39369141 48.11080078 -3.40332031 47.00878906 C-3.44323512 43.0350603 -3.50899721 39.06210456 -3.58251953 35.08886719 C-3.61072067 33.37021831 -3.63193954 31.65143995 -3.64599609 29.93261719 C-3.66743833 27.45961253 -3.71409156 24.98816325 -3.765625 22.515625 C-3.76685364 21.74881409 -3.76808228 20.98200317 -3.76934814 20.19195557 C-3.86508523 16.6940805 -4.10110872 14.62276793 -6.19824219 11.76855469 C-9.43933061 9.50749928 -11.51919511 9.6411887 -15.375 10.25 C-18.00516161 12.4227422 -19.84836894 14.19673788 -21.375 17.25 C-21.53126576 19.72832659 -21.63313198 22.18311331 -21.69140625 24.6640625 C-21.71218735 25.39370209 -21.73296844 26.12334167 -21.75437927 26.87509155 C-21.81981917 29.20829763 -21.87873368 31.54161721 -21.9375 33.875 C-21.98069053 35.45574095 -22.02430499 37.03647039 -22.06835938 38.6171875 C-22.17549481 42.49467504 -22.27677782 46.37227685 -22.375 50.25 C-26.335 50.25 -30.295 50.25 -34.375 50.25 C-34.375 33.42 -34.375 16.59 -34.375 -0.75 C-30.415 -0.75 -26.455 -0.75 -22.375 -0.75 C-22.045 0.9 -21.715 2.55 -21.375 4.25 C-20.446875 3.445625 -19.51875 2.64125 -18.5625 1.8125 C-13.05692065 -2.9590021 -6.40920824 -2.97695465 0 0 Z " fill="#092850" transform="translate(600.375,406.75)"/>
<path d="M0 0 C1.05441284 0.00918457 1.05441284 0.00918457 2.13012695 0.01855469 C7.68927811 0.18625155 11.59943353 1.18128314 16.0625 4.4375 C16.949375 4.97375 17.83625 5.51 18.75 6.0625 C24.4410702 11.90738291 26.39703277 17.89087984 26.625 26 C26.28621291 34.62604064 24.62493355 40.32314376 18.3125 46.3125 C11.38031402 51.79465075 5.14193029 53.0828672 -3.68359375 52.84765625 C-10.39383327 52.00182774 -15.72999404 49.07158715 -20.375 44.1875 C-25.70893525 37.17632165 -27.00838094 29.06539303 -25.9375 20.4375 C-24.20863831 13.38827226 -20.91511765 7.68149596 -14.9375 3.4375 C-9.91956262 0.85580758 -5.59024756 -0.08302679 0 0 Z " fill="#08234A" transform="translate(675.9375,405.5625)"/>
<path d="M0 0 C4.99004483 3.99760097 8.25989552 8.28605574 9.7265625 14.55859375 C10.65572816 23.87161053 10.12564596 31.40136367 4.9140625 39.30859375 C-0.0757444 44.44096656 -5.52339105 47.18445919 -12.640625 47.89453125 C-21.76039417 47.9960877 -27.25315549 47.13217776 -34.0859375 41.05859375 C-40.42077495 33.81877952 -41.81090002 27.7313733 -41.6484375 18.10546875 C-40.91866412 11.20302883 -38.02560368 5.89005871 -33.0234375 1.12109375 C-23.35257586 -6.28414304 -10.22288663 -6.48152091 0 0 Z " fill="#08234A" transform="translate(793.2734375,514.44140625)"/>
<path d="M0 0 C5.90491065 3.54739453 9.76495028 8.0264343 12.03515625 14.625 C14.14389488 24.14488526 12.96497403 33.60916561 7.82421875 41.87109375 C3.04841901 46.51423239 -2.07837554 48.801101 -8.67578125 49.30859375 C-15.37253562 48.86214346 -19.69553607 47.24307141 -24.30078125 42.24609375 C-30.46962509 35.05867337 -30.2235131 26.06520942 -29.6640625 17.08203125 C-29.01347837 11.55739883 -26.66441245 7.16006593 -22.640625 3.3828125 C-16.18886727 -1.4799773 -7.66185316 -2.9734406 0 0 Z " fill="#FBFCFC" transform="translate(482.42578125,501.94140625)"/>
<path d="M0 0 C3.92679483 2.86190131 5.33577007 6.8198102 6.84375 11.34375 C6.92893867 14.14801452 6.9596352 16.9267135 6.94140625 19.73046875 C6.9399913 20.54747757 6.93857635 21.36448639 6.93711853 22.20625305 C6.93152294 24.81462268 6.91897129 27.42290634 6.90625 30.03125 C6.90123443 31.80012897 6.89667162 33.56900928 6.89257812 35.33789062 C6.88155496 39.67321019 6.86429338 44.00846552 6.84375 48.34375 C3.21375 48.34375 -0.41625 48.34375 -4.15625 48.34375 C-4.81625 47.02375 -5.47625 45.70375 -6.15625 44.34375 C-7.331875 45.3028125 -7.331875 45.3028125 -8.53125 46.28125 C-13.90375221 50.50250173 -19.52331849 49.92544436 -26.15625 49.34375 C-29.71875 47.65625 -29.71875 47.65625 -32.15625 45.34375 C-32.919375 44.621875 -33.6825 43.9 -34.46875 43.15625 C-36.79316227 39.28222955 -37.35479212 35.83874353 -37.15625 31.34375 C-35.54322257 26.59428034 -33.35036811 24.04662612 -29.15625 21.34375 C-21.44557782 17.84032085 -14.55435359 17.19698702 -6.15625 17.34375 C-6.259375 16.065 -6.3625 14.78625 -6.46875 13.46875 C-6.52675781 12.74945312 -6.58476563 12.03015625 -6.64453125 11.2890625 C-7.03018036 8.94855784 -7.03018036 8.94855784 -10.15625 7.34375 C-13.83800404 7.00904509 -16.25918238 6.8480021 -19.53125 8.65625 C-21.39835971 10.35297741 -21.39835971 10.35297741 -22.15625 13.34375 C-26.11625 13.34375 -30.07625 13.34375 -34.15625 13.34375 C-33.91027489 8.30126016 -32.29576944 5.47495635 -28.94140625 1.890625 C-21.18812904 -4.82775088 -8.7920544 -4.45973774 0 0 Z " fill="#0A264C" transform="translate(635.15625,512.65625)"/>
<path d="M0 0 C6.17168903 4.15402146 8.71248794 9.13746382 11 16 C11 19.3 11 22.6 11 26 C-0.55 26 -12.1 26 -24 26 C-21.31815991 36.34550664 -21.31815991 36.34550664 -17.1875 39.25 C-12.46748587 40.36059156 -8.85328667 40.07295544 -4.625 37.625 C-2.74844235 35.99068305 -2.74844235 35.99068305 -2 33 C2.29 33 6.58 33 11 33 C9.68784098 38.57667582 8.26859803 42.73712444 3.32421875 46.16015625 C-4.03118083 50.55449561 -12.22645296 51.4543381 -20.57421875 49.3515625 C-26.88003098 46.84636715 -30.92722688 43.01207222 -34.03125 37.00390625 C-37.24243104 28.90162076 -37.30321997 19.65761422 -34.3125 11.5 C-32.49773874 7.5434357 -30.38953992 4.79637044 -27 2 C-26.360625 1.443125 -25.72125 0.88625 -25.0625 0.3125 C-17.22688789 -4.67379861 -8.03304207 -4.21182755 0 0 Z " fill="#08234A" transform="translate(934,408)"/>
<path d="M0 0 C3.96 0 7.92 0 12 0 C12.33 12.21 12.66 24.42 13 37 C22.33713387 29.12193679 22.33713387 29.12193679 26.5625 23.4375 C29.32929938 20.53264826 31.37767478 19.77270456 35.27734375 19.50390625 C39.54047252 19.41907891 43.75199343 19.65243583 48 20 C47.67 20.66 47.34 21.32 47 22 C46.34 22 45.68 22 45 22 C44.505 23.485 44.505 23.485 44 25 C42.43359375 26.54296875 42.43359375 26.54296875 40.4375 28.1875 C36.05041036 31.90026302 32.0135492 35.89038181 28 40 C29.36327566 43.83635361 31.11452443 46.7558142 33.5625 50 C36.77777636 54.3302988 39.92478396 58.69482253 43 63.125 C43.39775635 63.69347656 43.7955127 64.26195312 44.20532227 64.84765625 C47 68.88037314 47 68.88037314 47 70 C41.62853815 71.17910138 36.22543202 72.15978274 31 70 C25.87202564 65.22231421 22.48365065 58.85174588 19.16650391 52.74414062 C18.78155762 52.16857422 18.39661133 51.59300781 18 51 C17.34 51 16.68 51 16 51 C12.97906785 54.02093215 13.53323166 57.56372072 13.375 61.625 C13.31699219 62.82769531 13.31699219 62.82769531 13.2578125 64.0546875 C13.16346069 66.03607556 13.08063785 68.01800645 13 70 C8.71 70 4.42 70 0 70 C0 46.9 0 23.8 0 0 Z " fill="#07234B" transform="translate(705,491)"/>
<path d="M0 0 C6.43283269 4.15551601 9.70953823 9.52003916 11.73046875 16.79296875 C12.140625 19.3828125 12.140625 19.3828125 12.140625 26.3828125 C0.590625 26.3828125 -10.959375 26.3828125 -22.859375 26.3828125 C-20.90775645 35.75914547 -20.90775645 35.75914547 -17.171875 39.0703125 C-13.02707473 40.71259185 -10.07970393 40.81358499 -5.859375 39.3828125 C-3.47624797 37.48853204 -2.2093191 36.08270071 -0.859375 33.3828125 C3.100625 33.3828125 7.060625 33.3828125 11.140625 33.3828125 C10.85146335 39.3106264 8.27515254 42.43803381 4.140625 46.3828125 C-2.57408442 51.17903351 -9.83647629 51.05539083 -17.859375 50.3828125 C-24.12713245 48.70195994 -28.32584418 44.69962056 -31.859375 39.3828125 C-35.92737952 31.92480422 -35.73172201 23.65364968 -34.859375 15.3828125 C-32.89785139 8.76895725 -29.62429034 4.11305184 -23.859375 0.3828125 C-15.92544088 -3.75224638 -8.04219619 -4.0210981 0 0 Z " fill="#082349" transform="translate(545.859375,407.6171875)"/>
<path d="M0 0 C3.78443516 2.69610086 6.30988589 5.82809517 7.79296875 10.27734375 C7.87837775 13.22698488 7.90879802 16.15237394 7.890625 19.1015625 C7.88921005 19.96296341 7.8877951 20.82436432 7.88633728 21.71186829 C7.88074015 24.46289544 7.86818821 27.21384119 7.85546875 29.96484375 C7.85045338 31.83007695 7.84589054 33.69531142 7.84179688 35.56054688 C7.83077167 40.13284386 7.81350902 44.70508 7.79296875 49.27734375 C3.83296875 49.27734375 -0.12703125 49.27734375 -4.20703125 49.27734375 C-4.23676025 47.77167847 -4.23676025 47.77167847 -4.26708984 46.2355957 C-4.34336874 42.49869409 -4.43205111 38.76217058 -4.52441406 35.02563477 C-4.56261197 33.41080205 -4.5974807 31.79588691 -4.62890625 30.1809082 C-4.67475734 27.85468158 -4.73271709 25.52901783 -4.79296875 23.203125 C-4.80451996 22.48522293 -4.81607117 21.76732086 -4.82797241 21.02766418 C-4.94470626 17.03075773 -5.45443806 13.88399606 -7.20703125 10.27734375 C-13.76338291 9.12980692 -13.76338291 9.12980692 -20.14453125 10.40234375 C-23.57836346 13.52400939 -25.06622591 16.13587437 -25.6394043 20.7824707 C-25.66558838 22.09691162 -25.69177246 23.41135254 -25.71875 24.765625 C-25.7367012 25.4688237 -25.7546524 26.1720224 -25.77314758 26.89653015 C-25.82703605 29.12757492 -25.86107537 31.35840845 -25.89453125 33.58984375 C-25.92772349 35.10875322 -25.96221492 36.62763489 -25.99804688 38.14648438 C-26.0827482 41.85656791 -26.14966199 45.56672545 -26.20703125 49.27734375 C-30.16703125 49.27734375 -34.12703125 49.27734375 -38.20703125 49.27734375 C-38.20703125 32.44734375 -38.20703125 15.61734375 -38.20703125 -1.72265625 C-34.24703125 -1.72265625 -30.28703125 -1.72265625 -26.20703125 -1.72265625 C-25.87703125 0.25734375 -25.54703125 2.23734375 -25.20703125 4.27734375 C-24.48515625 3.49359375 -23.76328125 2.70984375 -23.01953125 1.90234375 C-16.31476508 -4.35543801 -7.83566035 -4.39485141 0 0 Z " fill="#072249" transform="translate(804.20703125,407.72265625)"/>
<path d="M0 0 C4.10286062 3.07454872 6.47680924 7.21360737 8.16796875 11.96875 C8.16796875 12.95875 8.16796875 13.94875 8.16796875 14.96875 C3.87796875 14.96875 -0.41203125 14.96875 -4.83203125 14.96875 C-5.49203125 13.31875 -6.15203125 11.66875 -6.83203125 9.96875 C-9.94189332 7.89550862 -10.72311512 7.69482814 -14.26953125 7.71875 C-15.03136719 7.71359375 -15.79320312 7.7084375 -16.578125 7.703125 C-19.09725779 8.0000072 -20.68447159 8.63228583 -22.83203125 9.96875 C-26.56685711 15.22517159 -27.25878152 19.56749597 -26.83203125 25.96875 C-25.83817626 30.15546196 -24.48977382 33.2170442 -21.64453125 36.46875 C-17.22075703 38.82809625 -13.31691085 38.68805725 -8.45703125 37.28125 C-6.26310405 35.72804113 -6.26310405 35.72804113 -4.83203125 30.96875 C-0.54203125 30.96875 3.74796875 30.96875 8.16796875 30.96875 C5.81265119 38.15866677 3.16100611 43.68073043 -3.83203125 47.34375 C-10.56658806 49.99947373 -17.74891651 50.18583228 -24.67578125 48.12109375 C-31.73267326 44.98587817 -36.08530005 40.30233572 -38.9609375 33.16796875 C-41.05712351 25.46942013 -41.14522689 16.72395865 -37.76953125 9.40625 C-33.70386342 2.55041797 -28.68351252 -1.39014738 -21.015625 -3.5625 C-13.78548733 -5.1145868 -6.42643949 -3.61744142 0 0 Z " fill="#08234A" transform="translate(884.83203125,409.03125)"/>
<path d="M0 0 C4.06462226 3.29312981 7.13359467 6.71566229 7.9375 12 C7.958125 12.99 7.97875 13.98 8 15 C3.94483097 15.3443068 0.04210448 15.54433674 -4 15 C-6.625 12.0625 -6.625 12.0625 -8 9 C-11.47747287 7.26126357 -15.2061837 7.40926736 -19 8 C-22.35759348 10.57177373 -24.42045941 13.10657101 -26 17 C-26.68135703 23.3534331 -26.94886768 29.68945381 -23 35 C-20.06791771 37.44340191 -18.31177679 37.96659534 -14.5 38.375 C-10.7513131 37.97335498 -8.92557776 37.3404622 -6 35 C-5.34 33.68 -4.68 32.36 -4 31 C-0.04 31 3.92 31 8 31 C6.47297872 38.63510638 3.05195375 42.2972766 -3 46.80078125 C-8.86646421 50.31836819 -17.08224297 49.94628901 -23.5390625 48.38671875 C-30.2075156 45.78579288 -34.83337008 41.209893 -38.09765625 34.8671875 C-41.01273309 27.3015462 -41.12605437 19.38688505 -38.4375 11.75 C-35.30352449 4.87054155 -30.9753664 0.61010777 -24.0625 -2.4375 C-15.38872945 -5.45503162 -8.06026048 -4.2756508 0 0 Z " fill="#08234A" transform="translate(749,409)"/>
<path d="M0 0 C4.77271129 3.00269915 8.02052802 6.77266463 9.625 12.25 C9.851875 13.28125 10.07875 14.3125 10.3125 15.375 C8.21008397 15.50996251 6.1052039 15.60697307 4 15.6875 C2.82824219 15.74550781 1.65648437 15.80351563 0.44921875 15.86328125 C-1.10345703 15.62158203 -1.10345703 15.62158203 -2.6875 15.375 C-4.48046875 12.91796875 -4.48046875 12.91796875 -5.6875 10.375 C-9.4093347 8.51408265 -13.63469381 8.8069689 -17.6875 9.375 C-21.44620899 12.1157253 -23.53495279 14.86958819 -24.6875 19.375 C-25.21794354 25.95249985 -24.49694513 31.00366584 -20.125 36.25 C-17.13573097 38.58942793 -14.48357378 38.70504808 -10.7265625 38.6640625 C-7.52205438 38.20978357 -5.86025789 36.67944019 -3.6875 34.375 C-3.3575 33.385 -3.0275 32.395 -2.6875 31.375 C1.6025 31.375 5.8925 31.375 10.3125 31.375 C7.30562305 40.0486835 5.16433884 43.4436807 -2.6875 48.1875 C-8.92643553 50.60526121 -16.76856497 50.4150965 -23.16015625 48.71875 C-29.34457965 45.95422933 -33.7531359 40.91470016 -36.5625 34.8125 C-39.04724588 27.10380042 -39.0031269 18.25559408 -35.625 10.875 C-28.5301958 -1.34494605 -13.04874062 -5.99942098 0 0 Z " fill="#072249" transform="translate(687.6875,512.625)"/>
<path d="M0 0 C4.29 0 8.58 0 13 0 C16.96 11.22 20.92 22.44 25 34 C28.96 22.78 32.92 11.56 37 0 C41.29 0 45.58 0 50 0 C48.05565399 6.6893832 45.89797091 13.21568658 43.42578125 19.7265625 C43.09708542 20.60025482 42.76838959 21.47394714 42.42973328 22.37411499 C41.39377637 25.12559853 40.353227 27.87531766 39.3125 30.625 C38.60320925 32.50639494 37.89422215 34.38790439 37.18554688 36.26953125 C35.4605337 40.84768351 33.73140369 45.42426095 32 50 C27.38 50 22.76 50 18 50 C17.52578613 48.75387939 17.05157227 47.50775879 16.56298828 46.22387695 C14.800392 41.59253038 13.03724181 36.96139485 11.27392578 32.33032227 C10.51140519 30.32744998 9.74903404 28.3245208 8.98681641 26.3215332 C7.89004338 23.43946536 6.7927299 20.55760379 5.6953125 17.67578125 C5.3556546 16.78288895 5.0159967 15.88999664 4.66604614 14.970047 C4.34586517 14.12955307 4.0256842 13.28905914 3.69580078 12.4230957 C3.40014221 11.64511627 3.10448364 10.86713684 2.79986572 10.06558228 C2.15218886 8.39301424 1.46633198 6.73526395 0.76904297 5.08276367 C0 3 0 3 0 0 Z " fill="#09244B" transform="translate(805,511)"/>
<path d="M0 0 C4.29 0 8.58 0 13 0 C13 23.1 13 46.2 13 70 C8.71 70 4.42 70 0 70 C0 46.9 0 23.8 0 0 Z " fill="#0D294F" transform="translate(577,491)"/>
<path d="M0 0 C4.30390834 2.52620707 6.34960926 5.30941578 8 10 C8.7714333 16.39338554 8.14532465 21.38334884 5 27 C2.64500093 29.79656139 1.48686467 30.83771178 -2 32 C-6.73039335 32.38773716 -9.05546399 32.48117872 -13.3125 30.3125 C-18.43746 25.9026507 -19.7688065 21.77432206 -20.3125 15.25 C-20.22385768 10.49877165 -18.83942546 6.80550217 -16 3 C-11.25028666 -1.49130925 -6.11344515 -1.78117293 0 0 Z " fill="#FAFBFB" transform="translate(682,416)"/>
<path d="M0 0 C3.23546115 1.76107379 5.40595464 4.05492783 7.375 7.1875 C8.94299447 14.24347511 8.75103188 20.7482802 5 27 C1.65010968 30.11061244 -1.01273493 31.26581613 -5.5 31.5 C-9.97411596 31.27403455 -12.62833366 30.05055526 -16 27 C-19.792772 21.81654493 -19.68119413 16.17677376 -19 10 C-17.45477005 5.75061764 -15.4543237 2.91458562 -12 0 C-7.80109914 -1.39963362 -4.27420317 -1.06490386 0 0 Z " fill="#FBFCFC" transform="translate(783,521)"/>
<path d="M0 0 C3.92785139 2.29427179 6.55325195 4.65975586 8 9 C8.65759519 16.37369027 8.7599072 22.11274636 4 28 C-0.01132797 30.70328624 -3.192379 31.7011114 -8 31 C-11.0603333 29.2344231 -13.50587755 27.49412245 -16 25 C-16.28045302 22.03605437 -16.41637765 19.21651671 -16.4375 16.25 C-16.47037109 15.45078125 -16.50324219 14.6515625 -16.53710938 13.828125 C-16.57547078 9.587446 -16.32554768 6.84085442 -13.59765625 3.484375 C-9.40889667 -0.52171687 -5.65325243 -0.99600532 0 0 Z " fill="#FCFCFC" transform="translate(547,521)"/>
<path d="M0 0 C3.96 0 7.92 0 12 0 C12 16.83 12 33.66 12 51 C8.04 51 4.08 51 0 51 C0 34.17 0 17.34 0 0 Z " fill="#072248" transform="translate(824,406)"/>
<path d="M0 0 C18 0 18 0 24 5 C25.74837975 8.4967595 25.55788568 12.18457492 25 16 C23.18468687 19.86669838 20.63044124 21.73830741 16.6875 23.375 C12.65583398 24.05833322 9.07958514 24.14314334 5 24 C5 28.29 5 32.58 5 37 C3.35 37 1.7 37 0 37 C0 24.79 0 12.58 0 0 Z " fill="#04193E" transform="translate(443,595)"/>
<path d="M0 0 C3.02913901 2.74064958 4.37421838 4.47550437 5.625 8.375 C5.88339879 14.3720053 4.58116486 18.74063544 0.625 23.375 C-3.58187787 25.95568978 -7.56956168 25.9337719 -12.375 25.375 C-16.11198169 23.75022535 -18.22263317 21.81878693 -20.375 18.375 C-21.96390167 13.60829499 -21.95105363 9.80141851 -20.0625 5.125 C-15.44736454 -2.39596149 -7.87910765 -3.79364442 0 0 Z " fill="#081536" transform="translate(728.375,607.625)"/>
<path d="M0 0 C2.78988693 2.39133166 3.90641275 4.43629212 5.1875 7.875 C5.1875 9.855 5.1875 11.835 5.1875 13.875 C-1.0825 13.875 -7.3525 13.875 -13.8125 13.875 C-12.8225 16.185 -11.8325 18.495 -10.8125 20.875 C-7.43785976 21.1253577 -7.43785976 21.1253577 -3.8125 20.875 C-2.18735532 19.41666642 -2.18735532 19.41666642 -0.8125 17.875 C1.875 17.6875 1.875 17.6875 4.1875 17.875 C2.90557512 21.8276017 1.73740635 23.70146085 -1.8125 25.875 C-5.84118407 26.67275922 -9.96899667 26.7553669 -13.7265625 24.9609375 C-17.38643664 22.16645232 -19.03946605 19.34141838 -19.8125 14.875 C-19.95117792 10.05594213 -19.49637745 6.21938979 -16.4375 2.375 C-11.78094282 -2.05981636 -5.81530045 -2.32612018 0 0 Z " fill="#1C2D4D" transform="translate(490.8125,607.125)"/>
<path d="M0 0 C3.47060168 2.06759249 5.77725393 4.10944433 7 8 C7 10.31 7 12.62 7 15 C0.73 15 -5.54 15 -12 15 C-10.45957252 19.80304035 -10.45957252 19.80304035 -8 22 C-4.54199641 22.41673207 -4.54199641 22.41673207 -1 22 C0.62514468 20.54166642 0.62514468 20.54166642 2 19 C4.6875 18.8125 4.6875 18.8125 7 19 C5.1021401 22.51104082 3.62072351 25.18963824 0 27 C-4.77002542 27.74645436 -8.10753355 27.45434656 -12.4375 25.25 C-15.59498355 22.47757542 -16.79362721 20.58859054 -17.3359375 16.4140625 C-17.4194693 10.44989227 -17.24202761 6.59552991 -13 2 C-8.79717978 -0.54636278 -4.7961588 -0.70229468 0 0 Z " fill="#283C5E" transform="translate(546,606)"/>
<path d="M0 0 C3.47060168 2.06759249 5.77725393 4.10944433 7 8 C7 10.31 7 12.62 7 15 C0.73 15 -5.54 15 -12 15 C-10.34922098 18.75170424 -10.34922098 18.75170424 -8 22 C-4.58375742 22.33354403 -4.58375742 22.33354403 -1 22 C0.62514468 20.54166642 0.62514468 20.54166642 2 19 C4.6875 18.8125 4.6875 18.8125 7 19 C6.10368306 22.01488424 5.32087126 23.71802222 2.9375 25.8125 C-2.07402273 27.83843472 -6.81192128 27.80863779 -11.875 25.9375 C-15.75399052 22.40077335 -17.14191413 18.08069405 -17.4375 12.9375 C-16.84763044 7.62867397 -14.80229511 5.00255012 -11.3125 1.125 C-7.60935964 -0.67652774 -4.03022085 -0.65491089 0 0 Z " fill="#05183B" transform="translate(638,606)"/>
<path d="M0 0 C1.98 0 3.96 0 6 0 C6.33 4.62 6.66 9.24 7 14 C7.99 13.34 8.98 12.68 10 12 C16.91538462 11.33076923 16.91538462 11.33076923 20.9375 13.8125 C23.86175741 16.91398513 24.12512947 19.35570921 24.09765625 23.44921875 C24.09443359 24.29677734 24.09121094 25.14433594 24.08789062 26.01757812 C24.07951172 26.89865234 24.07113281 27.77972656 24.0625 28.6875 C24.05798828 29.58017578 24.05347656 30.47285156 24.04882812 31.39257812 C24.03704983 33.59511987 24.02060164 35.79752599 24 38 C22.02 38 20.04 38 18 38 C17.98018066 37.43490723 17.96036133 36.86981445 17.93994141 36.28759766 C17.84481764 33.73292003 17.73508942 31.17907459 17.625 28.625 C17.5940625 27.73554687 17.563125 26.84609375 17.53125 25.9296875 C17.49257813 25.07890625 17.45390625 24.228125 17.4140625 23.3515625 C17.36693115 22.17327881 17.36693115 22.17327881 17.31884766 20.97119141 C17.1600535 18.76997061 17.1600535 18.76997061 15 17 C10.49682877 17.35263785 10.49682877 17.35263785 7 20 C6.63168919 21.93257855 6.63168919 21.93257855 6.5859375 24.1328125 C6.54726563 24.93847656 6.50859375 25.74414062 6.46875 26.57421875 C6.4378125 27.41597656 6.406875 28.25773438 6.375 29.125 C6.33632813 29.97449219 6.29765625 30.82398438 6.2578125 31.69921875 C6.16343506 33.79911684 6.08062414 35.89952891 6 38 C4.02 38 2.04 38 0 38 C0 25.46 0 12.92 0 0 Z " fill="#1A2848" transform="translate(651,594)"/>
<path d="M0 0 C1.98 0 3.96 0 6 0 C6.33 7.26 6.66 14.52 7 22 C8.505625 20.35 10.01125 18.7 11.5625 17 C16.05480769 12.07692308 16.05480769 12.07692308 20.83984375 11.6875 C22.40412109 11.8421875 22.40412109 11.8421875 24 12 C24 12.66 24 13.32 24 14 C22.3203125 15.62109375 22.3203125 15.62109375 20.125 17.4375 C17.53806278 19.58400884 15.88815626 21.16776562 14 24 C14.6496875 24.84304688 15.299375 25.68609375 15.96875 26.5546875 C16.81275117 27.66126681 17.65648749 28.76804815 18.5 29.875 C18.92925781 30.43058594 19.35851562 30.98617187 19.80078125 31.55859375 C23 35.7734375 23 35.7734375 23 38 C20.4375 38.5625 20.4375 38.5625 17 38 C14.25076109 35.2836861 12.01170292 32.29728821 10 29 C10 28.34 10 27.68 10 27 C6.82990528 28.62078662 6.82990528 28.62078662 6.48828125 31.1640625 C6.43027344 31.97617187 6.37226562 32.78828125 6.3125 33.625 C6.24675781 34.44226563 6.18101562 35.25953125 6.11328125 36.1015625 C6.07589844 36.72804688 6.03851562 37.35453125 6 38 C4.02 38 2.04 38 0 38 C0 25.46 0 12.92 0 0 Z " fill="#112346" transform="translate(682,594)"/>
<path d="M0 0 C3.09851777 1.8074687 4.59108071 2.86760812 5.8125 6.25 C5.874375 6.8275 5.93625 7.405 6 8 C3.625 8.1875 3.625 8.1875 1 8 C0.34 7.01 -0.32 6.02 -1 5 C-4.08365871 4.7497843 -4.08365871 4.7497843 -7 5 C-7.33 6.32 -7.66 7.64 -8 9 C-7.24074219 9.25394531 -6.48148438 9.50789062 -5.69921875 9.76953125 C-4.70535156 10.11371094 -3.71148438 10.45789063 -2.6875 10.8125 C-1.20830078 11.31716797 -1.20830078 11.31716797 0.30078125 11.83203125 C2.91481885 12.96314159 4.32162925 13.72662156 6 16 C6.65044248 22.07079646 6.65044248 22.07079646 4.6875 24.875 C0.54289472 27.63807019 -4.20681269 27.61278927 -9 27 C-12.0625 25.25 -12.0625 25.25 -14 23 C-14 21.68 -14 20.36 -14 19 C-11.5625 19.375 -11.5625 19.375 -9 20 C-8.67 20.66 -8.34 21.32 -8 22 C-5.36 22 -2.72 22 0 22 C-0.33 20.35 -0.66 18.7 -1 17 C-1.68707031 16.82984375 -2.37414062 16.6596875 -3.08203125 16.484375 C-3.98308594 16.24203125 -4.88414062 15.9996875 -5.8125 15.75 C-7.15248047 15.40195312 -7.15248047 15.40195312 -8.51953125 15.046875 C-11.43679814 13.81565055 -12.47414779 12.75162015 -14 10 C-13.93600929 6.35252953 -13.76209885 3.98437768 -11.5 1.0625 C-7.66176874 -0.56874829 -4.10094702 -0.665216 0 0 Z " fill="#07183A" transform="translate(752,606)"/>
<path d="M0 0 C3.4203866 1.17013226 3.91540482 1.87310723 6 5 C6 5.99 6 6.98 6 8 C3.625 8.1875 3.625 8.1875 1 8 C0.34 7.01 -0.32 6.02 -1 5 C-4.08365871 4.7497843 -4.08365871 4.7497843 -7 5 C-7.33 6.32 -7.66 7.64 -8 9 C-7.07316406 9.33773437 -6.14632812 9.67546875 -5.19140625 10.0234375 C-3.99386719 10.46945312 -2.79632812 10.91546875 -1.5625 11.375 C-0.36753906 11.81585937 0.82742188 12.25671875 2.05859375 12.7109375 C5 14 5 14 6 16 C6.45404871 20.08643837 6.66920478 22.15809721 4.0625 25.4375 C-0.08022003 27.55113267 -3.43608147 27.67797341 -8 27 C-11 25.8125 -11 25.8125 -13 24 C-13.8125 21.3125 -13.8125 21.3125 -14 19 C-11.625 18.8125 -11.625 18.8125 -9 19 C-8.34 19.99 -7.68 20.98 -7 22 C-3.41642759 22.25015873 -3.41642759 22.25015873 0 22 C0.33 20.35 0.66 18.7 1 17 C0.16855469 16.82984375 -0.66289063 16.6596875 -1.51953125 16.484375 C-2.60621094 16.24203125 -3.69289063 15.9996875 -4.8125 15.75 C-6.43091797 15.40195312 -6.43091797 15.40195312 -8.08203125 15.046875 C-11.3413003 13.87755223 -12.39231215 13.0279068 -14 10 C-13.8670506 6.74273969 -13.60528959 4.76319122 -11.5625 2.1875 C-7.96311593 -0.5480319 -4.35427875 -0.34557768 0 0 Z " fill="#06183A" transform="translate(584,606)"/>
<path d="M0 0 C3.69209157 1.64092959 5.88862435 3.55512394 8 7 C8 7.66 8 8.32 8 9 C6.02 9 4.04 9 2 9 C2 8.01 2 7.02 2 6 C-3.42953393 4.75011796 -3.42953393 4.75011796 -8.5 6.3125 C-10.73173253 10.31102078 -11.01446422 14.53188185 -10 19 C-7.78863755 21.10079433 -6.51363906 21.91011316 -3.5 22.4375 C-0.83475748 22.21784442 -0.83475748 22.21784442 1 20 C3 18 3 18 5.75 17.75 C6.4925 17.8325 7.235 17.915 8 18 C6.82191948 21.3529984 5.80593388 23.7552529 3 26 C-1.82450176 27.60816725 -6.1893338 27.80474053 -10.8125 25.75 C-14.56056177 22.75155059 -16.38983677 20.03978134 -17 15.25 C-17.36735742 10.38071343 -16.22293134 7.57942747 -13.51953125 3.59375 C-9.73663565 -0.37391428 -5.25994808 -0.68106897 0 0 Z " fill="#0C1D41" transform="translate(517,606)"/>
<path d="M0 0 C9.73004484 -0.76681614 9.73004484 -0.76681614 12.84375 1.11328125 C14.1875 2.5 14.1875 2.5 16 5 C16.55107422 3.77216797 16.55107422 3.77216797 17.11328125 2.51953125 C19 0 19 0 21.91796875 -0.48828125 C23.53638672 -0.40126953 23.53638672 -0.40126953 25.1875 -0.3125 C26.27417969 -0.26738281 27.36085938 -0.22226562 28.48046875 -0.17578125 C29.72763672 -0.08876953 29.72763672 -0.08876953 31 0 C30.61328125 0.50789063 30.2265625 1.01578125 29.828125 1.5390625 C29.30734375 2.22742188 28.7865625 2.91578125 28.25 3.625 C27.69054687 4.34945313 27.13109375 5.07390625 26.5546875 5.8203125 C24.81444679 8.11887075 24.81444679 8.11887075 23.375 11.5 C20.53928428 14.48496392 19.33675125 14.68747079 15.3125 15.125 C10.95784911 14.95401984 9.42297506 14.39865252 6.21484375 11.375 C0 3.62348621 0 3.62348621 0 0 Z " fill="#0A244A" transform="translate(661,491)"/>
<path d="M0 0 C2.875 1.3125 2.875 1.3125 5 4 C5.71310532 7.78980973 5.71310532 11.21019027 5 15 C2.43933131 18.23849275 0.97062507 18.8415306 -3.0625 19.5 C-6.64818067 18.88967138 -7.76863693 17.80986461 -10 15 C-11.5121867 11.97562661 -11.17263369 9.33758466 -11 6 C-9.07833196 0.53063712 -5.53945955 -0.66473515 0 0 Z " fill="#F9FAFB" transform="translate(723,610)"/>
<path d="M0 0 C1.65 0 3.3 0 5 0 C5 2.64 5 5.28 5 8 C6.98 8 8.96 8 11 8 C11 9.32 11 10.64 11 12 C9.02 12 7.04 12 5 12 C5.33 17.28 5.66 22.56 6 28 C8.475 28.99 8.475 28.99 11 30 C11 30.99 11 31.98 11 33 C3.4749964 33.37008214 3.4749964 33.37008214 1.390625 31.74609375 C-0.33764951 29.5760412 -0.35134597 28.51326066 -0.29296875 25.76953125 C-0.28330078 24.96708984 -0.27363281 24.16464844 -0.26367188 23.33789062 C-0.23853516 22.50451172 -0.21339844 21.67113281 -0.1875 20.8125 C-0.17396484 19.96751953 -0.16042969 19.12253906 -0.14648438 18.25195312 C-0.11115799 16.16769616 -0.05735139 14.08376723 0 12 C-1.65 12 -3.3 12 -5 12 C-5 10.68 -5 9.36 -5 8 C-3.35 8 -1.7 8 0 8 C0 5.36 0 2.72 0 0 Z " fill="#071638" transform="translate(767,599)"/>
<path d="M0 0 C4.62 0 9.24 0 14 0 C14 0.33 14 0.66 14 1 C10.04 1 6.08 1 2 1 C2 23.44 2 45.88 2 69 C5.3 69 8.6 69 12 69 C12 53.49 12 37.98 12 22 C12.33 22 12.66 22 13 22 C13 38.17 13 54.34 13 71 C8.71 71 4.42 71 0 71 C0 47.57 0 24.14 0 0 Z " fill="#02133B" transform="translate(441,386)"/>
<path d="M0 0 C9.06593407 -0.6043956 9.06593407 -0.6043956 13.1875 2.0625 C15 5 15 5 15.0625 8.625 C13.88196706 12.37492817 13.31189616 13.0952307 10 15 C7.421875 15.29296875 7.421875 15.29296875 4.75 15.1875 C3.1825 15.125625 1.615 15.06375 0 15 C0 10.05 0 5.1 0 0 Z " fill="#FAFBFB" transform="translate(448,599)"/>
<path d="M0 0 C3 2.125 3 2.125 5 5 C5.33 6.98 5.66 8.96 6 11 C-1.26 11 -8.52 11 -16 11 C-14 4 -14 4 -11.9375 1.5625 C-7.88616176 -0.59246715 -4.49365302 -0.93617771 0 0 Z " fill="#FBFBFC" transform="translate(539,415)"/>
<path d="M0 0 C3 1.5625 3 1.5625 5 4 C5.33 6.31 5.66 8.62 6 11 C-1.26 11 -8.52 11 -16 11 C-13 3 -13 3 -11.375 1 C-7.58909528 -0.59406515 -4.0354273 -0.6330082 0 0 Z " fill="#FAFBFC" transform="translate(926,415)"/>
<path d="M0 0 C1.74216797 0.05414062 1.74216797 0.05414062 3.51953125 0.109375 C4.39996094 0.15578125 5.28039062 0.2021875 6.1875 0.25 C5.9456864 7.38350126 5.9456864 7.38350126 2.5625 11.25 C-1.35460068 13.57124485 -3.33618185 13.91315825 -7.8125 13.25 C-10.25 12.125 -10.25 12.125 -11.8125 10.25 C-12.375 7.3125 -12.375 7.3125 -11.8125 4.25 C-8.00058712 0.31808246 -5.38471372 -0.21756419 0 0 Z " fill="#FBFBFC" transform="translate(622.8125,538.75)"/>
<path d="M0 0 C2.9375 2.0625 2.9375 2.0625 5 5 C5.06641554 8.85210127 4.87229157 10.99848005 2.3125 13.9375 C-0.7864448 15.3613395 -2.62182812 15.55153827 -6 15 C-8.9375 12.9375 -8.9375 12.9375 -11 10 C-11.06641554 6.14789873 -10.87229157 4.00151995 -8.3125 1.0625 C-5.2135552 -0.3613395 -3.37817188 -0.55153827 0 0 Z " fill="#0A2349" transform="translate(833,384)"/>
<path d="M0 0 C1.65 0 3.3 0 5 0 C5 12.54 5 25.08 5 38 C3.35 38 1.7 38 0 38 C0 25.46 0 12.92 0 0 Z " fill="#03163A" transform="translate(610,594)"/>
<path d="M0 0 C2.08485081 0.09643583 4.1692457 0.212629 6.25 0.375 C6.25 1.035 6.25 1.695 6.25 2.375 C5.59 2.375 4.93 2.375 4.25 2.375 C4.064375 3.035 3.87875 3.695 3.6875 4.375 C1.57611549 8.78136767 -0.74671618 12.47825766 -4.75 15.375 C-8.51462097 16.03785665 -11.97153261 15.86695235 -15.75 15.375 C-14.54947841 13.1609233 -13.33372737 10.96085007 -12.078125 8.77734375 C-10.61583776 6.2328419 -10.61583776 6.2328419 -9.25 2.8125 C-6.00923309 -0.34724774 -4.44297451 0.01442524 0 0 Z " fill="#0D2448" transform="translate(631.75,489.625)"/>
<path d="M0 0 C3.47485838 2.07012839 5.74352278 4.11634312 7 8 C7 9.98 7 11.96 7 14 C0.73 14 -5.54 14 -12 14 C-12 13.01 -12 12.02 -12 11 C-7.38 11 -2.76 11 2 11 C0.66436384 6.05536365 0.66436384 6.05536365 -2 5 C-6.17624783 4.54500613 -6.17624783 4.54500613 -9.75 6.375 C-10.1625 6.91125 -10.575 7.4475 -11 8 C-11.66 8.66 -12.32 9.32 -13 10 C-13 9.34 -13 8.68 -13 8 C-13.99 8.33 -14.98 8.66 -16 9 C-15.79803569 5.36464239 -15.21677989 4.2005214 -12.5 1.6875 C-8.14206816 -0.41364571 -4.75622675 -0.87753261 0 0 Z " fill="#041335" transform="translate(546,606)"/>
<path d="M0 0 C2.89094238 0.30974383 4.04691751 1.04170446 6.25 3 C8.62775663 7.07615422 8.95683578 10.38610544 8 15 C6.05672945 18.56760738 3.92113181 20.69295606 0 22 C-2.06145107 22.068991 -4.12501401 22.08467727 -6.1875 22.0625 C-7.81751953 22.04896484 -7.81751953 22.04896484 -9.48046875 22.03515625 C-10.31191406 22.02355469 -11.14335937 22.01195312 -12 22 C-11.67 21.34 -11.34 20.68 -11 20 C-11.66 19.67 -12.32 19.34 -13 19 C-13 14.05 -13 9.1 -13 4 C-12.67 4 -12.34 4 -12 4 C-12 8.62 -12 13.24 -12 18 C-5.32526809 17.80590301 -5.32526809 17.80590301 0.6875 15.375 C2.60053271 11.91332177 2.03738289 9.7345784 1 6 C-2.16240582 3.89172945 -3.50657469 3.66182535 -7.1875 3.375 C-8.08855469 3.30023437 -8.98960937 3.22546875 -9.91796875 3.1484375 C-10.60503906 3.09945312 -11.29210937 3.05046875 -12 3 C-12 2.67 -12 2.34 -12 2 C-2.08524073 1.21862668 -2.08524073 1.21862668 2.125 4.25 C3.75970952 6.64757396 4.68330494 8.14974444 5 11 C5.41890218 8.21061788 5.41890218 8.21061788 5 5 C2.62499209 2.12359384 2.62499209 2.12359384 0 0 Z " fill="#051336" transform="translate(460,596)"/>
<path d="M0 0 C0.62261719 0.15339844 1.24523437 0.30679688 1.88671875 0.46484375 C6.18274772 1.20330795 10.46241952 1.36462162 14.8125 1.5625 C15.69615234 1.60568359 16.57980469 1.64886719 17.49023438 1.69335938 C19.65999623 1.79891536 21.8299791 1.89991071 24 2 C24 2.33 24 2.66 24 3 C17.73 3 11.46 3 5 3 C6.65077902 6.75170424 6.65077902 6.75170424 9 10 C12.41624258 10.33354403 12.41624258 10.33354403 16 10 C17.62514468 8.54166642 17.62514468 8.54166642 19 7 C21.6875 6.8125 21.6875 6.8125 24 7 C23.10368306 10.01488424 22.32087126 11.71802222 19.9375 13.8125 C14.92597727 15.83843472 10.18807872 15.80863779 5.125 13.9375 C1.53611151 10.66527814 0.11900779 6.86445534 -0.1875 2.0625 C-0.125625 1.381875 -0.06375 0.70125 0 0 Z " fill="#0A2046" transform="translate(621,618)"/>
<path d="M0 0 C0.99 0.495 0.99 0.495 2 1 C2 16.18 2 31.36 2 47 C4.97 47 7.94 47 11 47 C10.98952637 46.04109863 10.97905273 45.08219727 10.96826172 44.09423828 C10.93210672 40.54219281 10.90911607 36.99016366 10.89013672 33.43798828 C10.88006882 31.89954902 10.86641354 30.36112893 10.84912109 28.82275391 C10.82490683 26.61355867 10.81352509 24.40461605 10.8046875 22.1953125 C10.79436493 21.50567413 10.78404236 20.81603577 10.77340698 20.10549927 C10.77300522 18.40199094 10.87808974 16.69914057 11 15 C11.66 14.34 12.32 13.68 13 13 C12.67 24.88 12.34 36.76 12 49 C8.04 49 4.08 49 0 49 C0 32.83 0 16.66 0 0 Z " fill="#000C31" transform="translate(566,408)"/>
<path d="M0 0 C0.33 0 0.66 0 1 0 C1 12.87 1 25.74 1 39 C-2.96 39 -6.92 39 -11 39 C-11.33 26.46 -11.66 13.92 -12 1 C-11.01 1.495 -11.01 1.495 -10 2 C-8.8312519 5.5062443 -8.87485733 8.6477866 -8.90234375 12.29296875 C-8.9037587 12.99899734 -8.90517365 13.70502594 -8.90663147 14.43244934 C-8.91222236 16.68417626 -8.92477312 18.93580321 -8.9375 21.1875 C-8.94251618 22.71549335 -8.94707888 24.24348827 -8.95117188 25.77148438 C-8.9621888 29.51436135 -8.97944713 33.25716373 -9 37 C-6.03 37 -3.06 37 0 37 C0 24.79 0 12.58 0 0 Z " fill="#06143A" transform="translate(639,418)"/>
<path d="M0 0 C1.65 0 3.3 0 5 0 C5 8.25 5 16.5 5 25 C3.35 25 1.7 25 0 25 C0 16.75 0 8.5 0 0 Z " fill="#031638" transform="translate(783,607)"/>
<path d="M0 0 C2 1 2 1 2.61889648 2.61425781 C3.13143754 5.82281081 3.11097335 8.92250174 3.09765625 12.171875 C3.09553383 13.1955014 3.09553383 13.1955014 3.09336853 14.23980713 C3.08779084 16.40991684 3.07524254 18.5799217 3.0625 20.75 C3.05748211 22.22525892 3.05291971 23.70051947 3.04882812 25.17578125 C3.03782875 28.78388798 3.02057953 32.39193375 3 36 C5.97 36 8.94 36 12 36 C12 25.77 12 15.54 12 5 C12.33 5 12.66 5 13 5 C13 15.89 13 26.78 13 38 C9.04 38 5.08 38 1 38 C0.67 25.46 0.34 12.92 0 0 Z " fill="#06163C" transform="translate(596,419)"/>
<path d="M0 0 C1.32 3.3 2.64 6.6 4 10 C3.34 10 2.68 10 2 10 C1.608125 9.175 1.21625 8.35 0.8125 7.5 C-0.8382866 4.62790618 -0.8382866 4.62790618 -4.4375 4.3125 C-5.613125 4.539375 -6.78875 4.76625 -8 5 C-9.98 7.97 -9.98 7.97 -12 11 C-7.05 11 -2.1 11 3 11 C3 11.33 3 11.66 3 12 C-2.61 12 -8.22 12 -14 12 C-14 11.34 -14 10.68 -14 10 C-14.66 10 -15.32 10 -16 10 C-15.78931408 6.31299634 -14.9954447 4.99487529 -12.5 2.1875 C-8.53792207 -0.9048535 -4.84668529 -0.36717313 0 0 Z " fill="#06163A" transform="translate(638,606)"/>
<path d="M0 0 C2.44969175 2.08944297 3.21626425 3.75584338 4.125 6.8125 C1.8125 7 1.8125 7 -0.875 6.8125 C-1.555625 6.07 -1.555625 6.07 -2.25 5.3125 C-3.93374715 3.46730206 -3.93374715 3.46730206 -7.3125 3.375 C-11.34506326 3.87022707 -12.42453627 4.67590643 -14.875 7.8125 C-14.875 7.1525 -14.875 6.4925 -14.875 5.8125 C-15.535 5.8125 -16.195 5.8125 -16.875 5.8125 C-16.875 6.4725 -16.875 7.1325 -16.875 7.8125 C-17.535 7.8125 -18.195 7.8125 -18.875 7.8125 C-17.69691948 4.4595016 -16.68093388 2.0572471 -13.875 -0.1875 C-9.03216194 -1.80177935 -4.68271323 -1.93416416 0 0 Z " fill="#08173A" transform="translate(490.875,607.1875)"/>
<path d="M0 0 C1.32 0 2.64 0 4 0 C4.22162857 2.77035709 4.42779249 5.54038995 4.625 8.3125 C4.68945312 9.09818359 4.75390625 9.88386719 4.8203125 10.69335938 C4.871875 11.45068359 4.9234375 12.20800781 4.9765625 12.98828125 C5.02893066 13.68477783 5.08129883 14.38127441 5.13525391 15.09887695 C5 17 5 17 3 20 C2.69933846 22.75417318 2.49074701 25.42645147 2.375 28.1875 C2.33632813 28.93708984 2.29765625 29.68667969 2.2578125 30.45898438 C2.16371784 32.30559199 2.08077681 34.1527619 2 36 C1.34 36 0.68 36 0 36 C0 24.12 0 12.24 0 0 Z " fill="#103158" transform="translate(653,595)"/>
<path d="M0 0 C0.66 0 1.32 0 2 0 C2.33 7.59 2.66 15.18 3 23 C4.32 23.33 5.64 23.66 7 24 C6.505 24.495 6.01 24.99 5.5 25.5 C3.33021905 29.11630158 3.79111581 31.82231616 4 36 C2.68 36 1.36 36 0 36 C0 24.12 0 12.24 0 0 Z " fill="#0C2D54" transform="translate(684,595)"/>
<path d="M0 0 C0.61875 0.804375 1.2375 1.60875 1.875 2.4375 C3.74164041 5.03874519 3.74164041 5.03874519 6 6 C6 5.34 6 4.68 6 4 C6.61488281 4.03480469 7.22976563 4.06960938 7.86328125 4.10546875 C8.67152344 4.13253906 9.47976563 4.15960937 10.3125 4.1875 C11.11300781 4.22230469 11.91351562 4.25710938 12.73828125 4.29296875 C15.51744543 3.93297339 16.15396951 3.01385144 18 1 C20.6875 0.8125 20.6875 0.8125 23 1 C21.1021401 4.51104082 19.62072351 7.18963824 16 9 C11.23809841 9.74518307 7.86394 9.4165425 3.5 7.3125 C0.78322011 4.7994786 0.20196431 3.63535761 0 0 Z " fill="#061638" transform="translate(530,624)"/>
<path d="M0 0 C2.375 1.8125 2.375 1.8125 4 4 C4 4.99 4 5.98 4 7 C-0.62 7 -5.24 7 -10 7 C-9.67 5.35 -9.34 3.7 -9 2 C-5.50875983 -0.32749345 -4.10777749 -0.50299316 0 0 Z " fill="#F6F8F9" transform="translate(544,610)"/>
<path d="M0 0 C0.763125 0.061875 1.52625 0.12375 2.3125 0.1875 C1.03064661 4.13988127 -0.13561176 6.01655605 -3.6875 8.1875 C-7.64853331 8.96038455 -11.9488125 9.29779268 -15.44921875 7.0625 C-16.8125 5.6875 -16.8125 5.6875 -18.6875 3.1875 C-17.3675 3.5175 -16.0475 3.8475 -14.6875 4.1875 C-15.0175 3.5275 -15.3475 2.8675 -15.6875 2.1875 C-14.6975 2.5175 -13.7075 2.8475 -12.6875 3.1875 C-9.1875 3.52083333 -9.1875 3.52083333 -5.6875 3.1875 C-2.41705975 0.16863208 -2.41705975 0.16863208 0 0 Z " fill="#051032" transform="translate(492.6875,624.8125)"/>
<path d="M0 0 C3.625 0.4375 3.625 0.4375 6.0625 2.8125 C7.625 5.4375 7.625 5.4375 7.625 7.4375 C3.005 7.4375 -1.615 7.4375 -6.375 7.4375 C-5.01758555 0.65042776 -5.01758555 0.65042776 0 0 Z " fill="#F8FAFA" transform="translate(483.375,609.5625)"/>
<path d="M0 0 C0.7425 0.0825 1.485 0.165 2.25 0.25 C1.07191948 3.6029984 0.05593388 6.0052529 -2.75 8.25 C-7.69492646 9.89830882 -12.01825001 10.00764062 -16.75 7.9375 C-17.41 7.380625 -18.07 6.82375 -18.75 6.25 C-18.75 5.26 -18.75 4.27 -18.75 3.25 C-18.34652344 3.75660156 -17.94304687 4.26320313 -17.52734375 4.78515625 C-15.86106227 6.47554482 -15.86106227 6.47554482 -13.62890625 6.24609375 C-8.431868 4.99284506 -4.62923191 0.42083926 0 0 Z " fill="#060E2F" transform="translate(522.75,623.75)"/>
<path d="M0 0 C2 2 2 2 3 5 C2.24074219 4.96519531 1.48148438 4.93039062 0.69921875 4.89453125 C-0.29464844 4.86746094 -1.28851562 4.84039063 -2.3125 4.8125 C-3.29863281 4.77769531 -4.28476562 4.74289062 -5.30078125 4.70703125 C-8.01431407 4.75690711 -8.01431407 4.75690711 -9.73046875 6.38671875 C-10.14941406 6.91910156 -10.56835938 7.45148437 -11 8 C-11.66 8.66 -12.32 9.32 -13 10 C-13 9.34 -13 8.68 -13 8 C-13.99 8.33 -14.98 8.66 -16 9 C-15.79803569 5.36464239 -15.21677989 4.2005214 -12.5 1.6875 C-8.25456711 -0.35940514 -4.65264642 -0.80025518 0 0 Z " fill="#081739" transform="translate(546,606)"/>
<path d="M0 0 C3.5625 0.375 3.5625 0.375 5.5 2.1875 C6.5625 4.375 6.5625 4.375 6.5625 7.375 C1.9425 7.375 -2.6775 7.375 -7.4375 7.375 C-4.69225285 0.51188213 -4.69225285 0.51188213 0 0 Z " fill="#F9FAFB" transform="translate(633.4375,609.625)"/>
<path d="M0 0 C3.11042579 1.51318012 4.84987386 2.7898234 6.875 5.625 C8.31467928 9.94403785 8.16869075 13.60642574 7 18 C6.34 18.66 5.68 19.32 5 20 C4.34 19.67 3.68 19.34 3 19 C2.62109375 16.85546875 2.62109375 16.85546875 2.4375 14.1875 C2.20675351 10.99943112 1.84713036 8.08225123 1 5 C0.65939189 3.33480481 0.32441604 1.66842534 0 0 Z " fill="#192F52" transform="translate(726,607)"/>
<path d="M0 0 C0.268125 0.639375 0.53625 1.27875 0.8125 1.9375 C1.88667752 4.33131686 1.88667752 4.33131686 5 5 C4.67 5.33 4.34 5.66 4 6 C6.31 6.33 8.62 6.66 11 7 C11 7.33 11 7.66 11 8 C8.03 8 5.06 8 2 8 C2 11.96 2 15.92 2 20 C1.01 20 0.02 20 -1 20 C-1.02888514 16.85418577 -1.04675923 13.70840531 -1.0625 10.5625 C-1.07087891 9.66466797 -1.07925781 8.76683594 -1.08789062 7.84179688 C-1.09111328 6.98779297 -1.09433594 6.13378906 -1.09765625 5.25390625 C-1.10551147 4.06776733 -1.10551147 4.06776733 -1.11352539 2.85766602 C-1 1 -1 1 0 0 Z " fill="#072851" transform="translate(445,611)"/>
<path d="M0 0 C1.32 0.33 2.64 0.66 4 1 C4.06058594 2.12019531 4.12117187 3.24039063 4.18359375 4.39453125 C4.26801424 5.86719984 4.35266149 7.33985544 4.4375 8.8125 C4.47681641 9.55048828 4.51613281 10.28847656 4.55664062 11.04882812 C4.74381035 14.23071342 4.98720793 16.96162378 6 20 C6.99 20.33 7.98 20.66 9 21 C3.49461207 21.36702586 3.49461207 21.36702586 1.3190918 19.75268555 C-0.31737393 17.57830326 -0.35034179 16.46606412 -0.29296875 13.76953125 C-0.28330078 12.96708984 -0.27363281 12.16464844 -0.26367188 11.33789062 C-0.23853516 10.50451172 -0.21339844 9.67113281 -0.1875 8.8125 C-0.17396484 7.96751953 -0.16042969 7.12253906 -0.14648438 6.25195312 C-0.11115799 4.16769616 -0.05735139 2.08376723 0 0 Z " fill="#113057" transform="translate(768,610)"/>
<path d="M0 0 C1.33985898 1.66142513 2.67082708 3.33001351 4 5 C4.60199219 5.74765625 5.20398438 6.4953125 5.82421875 7.265625 C6.45972656 8.06484375 7.09523438 8.8640625 7.75 9.6875 C8.36359375 10.45449219 8.9771875 11.22148438 9.609375 12.01171875 C11 14 11 14 11 16 C8.125 16.125 8.125 16.125 5 16 C1.37825721 12.37825721 0.12043782 6.96715106 -0.1875 1.9375 C-0.125625 1.298125 -0.06375 0.65875 0 0 Z " fill="#081C41" transform="translate(694,616)"/>
<path d="M0 0 C3.4203866 1.17013226 3.91540482 1.87310723 6 5 C6 5.99 6 6.98 6 8 C3.625 8.1875 3.625 8.1875 1 8 C0.34 7.01 -0.32 6.02 -1 5 C-3.32031805 4.58565749 -5.65639085 4.25110098 -8 4 C-8.66 3.67 -9.32 3.34 -10 3 C-10 2.34 -10 1.68 -10 1 C-6.82245725 -0.58877137 -3.46605757 -0.27508393 0 0 Z " fill="#031033" transform="translate(584,606)"/>
<path d="M0 0 C4.55384615 -0.36923077 4.55384615 -0.36923077 6.8125 1.5 C7.204375 1.995 7.59625 2.49 8 3 C8.33 2.01 8.66 1.02 9 0 C10.65 0 12.3 0 14 0 C12.68 2.31 11.36 4.62 10 7 C7.25 7.3125 7.25 7.3125 4 7 C1.625 4.625 1.625 4.625 0 2 C0 1.34 0 0.68 0 0 Z " fill="#041537" transform="translate(506,595)"/>
<path d="M0 0 C1.1446875 0.0928125 1.1446875 0.0928125 2.3125 0.1875 C1.39120137 3.28641358 0.64091931 4.91538114 -1.875 7 C-5.30424383 8.44790295 -8.00124727 8.4043384 -11.6875 8.1875 C-11.3575 7.5275 -11.0275 6.8675 -10.6875 6.1875 C-11.3475 5.5275 -12.0075 4.8675 -12.6875 4.1875 C-11.594375 4.084375 -10.50125 3.98125 -9.375 3.875 C-5.17017123 3.09104887 -3.98708813 0.27816894 0 0 Z " fill="#071638" transform="translate(642.6875,624.8125)"/>
<path d="M0 0 C0.061875 1.216875 0.12375 2.43375 0.1875 3.6875 C0.71240624 8.17306239 2.5477769 10.07888815 6 13 C6 13.33 6 13.66 6 14 C3.01877746 14.24843521 1.41290653 14.24774392 -1.1875 12.6875 C-3 11 -3 11 -5 8 C-4.25 4.375 -4.25 4.375 -3 1 C-1 0 -1 0 0 0 Z " fill="#0B2247" transform="translate(506,617)"/>
<path d="M0 0 C1.98 0 3.96 0 6 0 C5.01 2.97 4.02 5.94 3 9 C3.99 9.33 4.98 9.66 6 10 C4.02 10.99 4.02 10.99 2 12 C-0.0625 10.375 -0.0625 10.375 -2 8 C-1.81623488 4.93724796 -1.36973455 2.7394691 0 0 Z " fill="#12294C" transform="translate(572,608)"/>
<path d="M0 0 C0.99 1.32 1.98 2.64 3 4 C2.01 4.495 2.01 4.495 1 5 C0.67 5.66 0.34 6.32 0 7 C-0.33 7.33 -0.66 7.66 -1 8 C-1.09858603 9.4555937 -1.12972143 10.91607919 -1.125 12.375 C-1.12757813 13.16648437 -1.13015625 13.95796875 -1.1328125 14.7734375 C-1.08617666 17.17343496 -1.08617666 17.17343496 0 20 C-0.99 20 -1.98 20 -3 20 C-4.46861889 17.06276222 -4.24793404 14.39407643 -4.3125 11.125 C-4.34988281 9.89007812 -4.38726563 8.65515625 -4.42578125 7.3828125 C-3.93513253 3.48463092 -3.03378875 2.38155408 0 0 Z " fill="#042751" transform="translate(713,607)"/>
<path d="M0 0 C3.1875 -0.3125 3.1875 -0.3125 6 0 C4.46417132 3.45561452 2.64236851 6.28213525 0 9 C-2.75 9.3125 -2.75 9.3125 -5 9 C-4.35330586 7.65686601 -3.68096422 6.32608822 -3 5 C-2.5875 4.0925 -2.175 3.185 -1.75 2.25 C-1.1725 1.5075 -0.595 0.765 0 0 Z " fill="#172B4D" transform="translate(485,594)"/>
<path d="M0 0 C1.984375 1.390625 1.984375 1.390625 4 4 C4.5096196 7.25975612 4.37632512 10.46068817 4.25 13.75 C4.23195313 14.63816406 4.21390625 15.52632812 4.1953125 16.44140625 C4.14827374 18.62870848 4.08257009 20.81379816 4 23 C3.34 23 2.68 23 2 23 C1.93941406 21.84242188 1.87882813 20.68484375 1.81640625 19.4921875 C1.73194498 17.95311543 1.64729982 16.41405345 1.5625 14.875 C1.52318359 14.11445312 1.48386719 13.35390625 1.44335938 12.5703125 C1.20490998 8.31490797 0.79769763 4.19629174 0 0 Z " fill="#072A54" transform="translate(669,608)"/>
<path d="M0 0 C2.41671767 1.20835884 3.82504473 2.15630592 5.5 4.25 C5.83 5.24 6.16 6.23 6.5 7.25 C4.1875 7.4375 4.1875 7.4375 1.5 7.25 C-0.0625 5.8125 -0.0625 5.8125 -1.5 4.25 C-3.60332891 3.53552357 -3.60332891 3.53552357 -5.5 3.25 C-5.5 2.26 -5.5 1.27 -5.5 0.25 C-2.5 -0.75 -2.5 -0.75 0 0 Z " fill="#0B1D42" transform="translate(488.5,606.75)"/>
<path d="M0 0 C0.33 0 0.66 0 1 0 C1.125 6.75 1.125 6.75 0 9 C0.66 9 1.32 9 2 9 C1.67 10.32 1.34 11.64 1 13 C0.67 12.34 0.34 11.68 0 11 C-0.99 11 -1.98 11 -3 11 C-3 11.99 -3 12.98 -3 14 C-10.625 15.25 -10.625 15.25 -14 13 C-12.7625 12.9175 -11.525 12.835 -10.25 12.75 C-7.39742053 12.37200802 -6.07790353 12.05125232 -3.625 10.4375 C-1.37309006 7.05963509 -0.79511661 3.97558303 0 0 Z " fill="#071D44" transform="translate(729,617)"/>
<path d="M0 0 C4.00972202 3.67557852 6.45335415 7.18966896 9 12 C6.41414795 12.16236745 3.83848046 12.28095486 1.25 12.375 C0.15558594 12.45041016 0.15558594 12.45041016 -0.9609375 12.52734375 C-3.109375 12.5859375 -3.109375 12.5859375 -7 12 C-9.515625 8.9765625 -9.515625 8.9765625 -11 6 C-10.67 5.34 -10.34 4.68 -10 4 C-9.54625 4.99 -9.0925 5.98 -8.625 7 C-6.3790597 10.21167726 -6.3790597 10.21167726 -3.5078125 10.3984375 C-0.98226885 10.37697396 1.48820963 10.25884863 4 10 C4.18490007 7.67642489 4.18490007 7.67642489 2 5 C0 2 0 2 0 0 Z " fill="#060F31" transform="translate(743,549)"/>
<path d="M0 0 C1.65 0 3.3 0 5 0 C3.76344399 3.42430894 2.59887381 6.40112619 0 9 C-1.65 9 -3.3 9 -5 9 C-3.35 6.03 -1.7 3.06 0 0 Z " fill="#061435" transform="translate(788,594)"/>
<path d="M0 0 C0.78375 0.04125 1.5675 0.0825 2.375 0.125 C0.91868932 4.73665049 0.91868932 4.73665049 -1.375 6.375 C-4.09987736 7.28329245 -6.78269026 7.73741231 -9.625 8.125 C-9.295 7.465 -8.965 6.805 -8.625 6.125 C-7.965 6.125 -7.305 6.125 -6.625 6.125 C-6.33625 5.50625 -6.0475 4.8875 -5.75 4.25 C-4.16515329 1.25640067 -3.47581022 0.16551477 0 0 Z " fill="#0A2046" transform="translate(522.625,623.875)"/>
<path d="M0 0 C0.62261719 0.15339844 1.24523437 0.30679688 1.88671875 0.46484375 C6.18274772 1.20330795 10.46241952 1.36462162 14.8125 1.5625 C15.69615234 1.60568359 16.57980469 1.64886719 17.49023438 1.69335938 C19.65999623 1.79891536 21.8299791 1.89991071 24 2 C24 2.33 24 2.66 24 3 C17.73 3 11.46 3 5 3 C4.67 3.99 4.34 4.98 4 6 C4 5.01 4 4.02 4 3 C3.34 3 2.68 3 2 3 C1.67 4.32 1.34 5.64 1 7 C0.67 4.69 0.34 2.38 0 0 Z " fill="#3B4A66" transform="translate(621,618)"/>
<path d="M0 0 C1.65 0 3.3 0 5 0 C5.33 1.65 5.66 3.3 6 5 C-0.6 5 -7.2 5 -14 5 C-14 4.67 -14 4.34 -14 4 C-8.72 4 -3.44 4 2 4 C2 3.01 2 2.02 2 1 C1.34 0.67 0.68 0.34 0 0 Z " fill="#0D2951" transform="translate(490,614)"/>
<path d="M0 0 C4.29 0 8.58 0 13 0 C12.34 1.32 11.68 2.64 11 4 C11 3.34 11 2.68 11 2 C7.7 2 4.4 2 1 2 C0.34 3.32 -0.32 4.64 -1 6 C-1.99 6.495 -1.99 6.495 -3 7 C-2.690625 6.401875 -2.38125 5.80375 -2.0625 5.1875 C-0.89790296 2.91043228 -0.89790296 2.91043228 0 0 Z " fill="#25304D" transform="translate(932,441)"/>
<path d="M0 0 C0.66 0.99 1.32 1.98 2 3 C1.67 3.33 1.34 3.66 1 4 C3.97 4 6.94 4 10 4 C10 4.99 10 5.98 10 7 C6.04 7 2.08 7 -2 7 C-1.125 1.125 -1.125 1.125 0 0 Z " fill="#233150" transform="translate(603,519)"/>
<path d="M0 0 C1.65 0 3.3 0 5 0 C5.99 1.98 6.98 3.96 8 6 C6.35 6.33 4.7 6.66 3 7 C0 3.375 0 3.375 0 0 Z " fill="#172A4B" transform="translate(570,625)"/>
<path d="M0 0 C1 2 1 2 0.3125 4.375 C-1.13371674 7.26743348 -2.42915785 9.03406189 -5 11 C-7.25 10.75 -7.25 10.75 -9 10 C-8.2575 9.278125 -7.515 8.55625 -6.75 7.8125 C-4.30709485 5.31407427 -2.1318953 2.76356798 0 0 Z " fill="#0A1C40" transform="translate(493,538)"/>
<path d="M0 0 C0.66 0.33 1.32 0.66 2 1 C2.40729228 3.32156597 2.74438677 5.6568787 3 8 C-0.96 8 -4.92 8 -9 8 C-8.67 7.01 -8.34 6.02 -8 5 C-8 5.66 -8 6.32 -8 7 C-3.545 6.505 -3.545 6.505 1 6 C0.67 4.02 0.34 2.04 0 0 Z " fill="#020F35" transform="translate(754,416)"/>
<path d="M0 0 C0.33 1.32 0.66 2.64 1 4 C1.66 3.67 2.32 3.34 3 3 C3 4.65 3 6.3 3 8 C2.67 7.34 2.34 6.68 2 6 C1.34 6 0.68 6 0 6 C1.15173355 8.46800047 2.04783565 10.04783565 4 12 C2.125 11.6875 2.125 11.6875 0 11 C-2 8 -2 8 -1.6875 4.375 C-1 1 -1 1 0 0 Z " fill="#041032" transform="translate(740,608)"/>
<path d="M0 0 C2.875 -0.1875 2.875 -0.1875 6 0 C8 3 8 3 8 6 C6.35 6 4.7 6 3 6 C2.814375 5.071875 2.814375 5.071875 2.625 4.125 C2.12802644 1.80879168 2.12802644 1.80879168 0 0 Z " fill="#0A1E40" transform="translate(582,608)"/>
<path d="M0 0 C4.29 0 8.58 0 13 0 C12.01 2.64 11.02 5.28 10 8 C9 5 9 5 9 2 C6.36 1.67 3.72 1.34 1 1 C1 1.99 1 2.98 1 4 C0.34 3.67 -0.32 3.34 -1 3 C-0.67 2.01 -0.34 1.02 0 0 Z " fill="#050D2E" transform="translate(685,544)"/>
<path d="M0 0 C4.29 0 8.58 0 13 0 C12.34 1.32 11.68 2.64 11 4 C11 3.34 11 2.68 11 2 C7.37 2 3.74 2 0 2 C0 1.34 0 0.68 0 0 Z " fill="#343C55" transform="translate(842,511)"/>
<path d="M0 0 C3.63 0 7.26 0 11 0 C8.03 3.96 8.03 3.96 5 8 C5 6 5 4 5 2 C3.35 1.67 1.7 1.34 0 1 C0 0.67 0 0.34 0 0 Z " fill="#040F30" transform="translate(681,491)"/>
<path d="M0 0 C0.66 0.33 1.32 0.66 2 1 C2 1.99 2 2.98 2 4 C-1.96 4 -5.92 4 -10 4 C-10 3.34 -10 2.68 -10 2 C-6.7 2 -3.4 2 0 2 C0 1.34 0 0.68 0 0 Z " fill="#06163D" transform="translate(891,420)"/>
<path d="M0 0 C0.33 0 0.66 0 1 0 C1 1.65 1 3.3 1 5 C1.639375 5.12375 2.27875 5.2475 2.9375 5.375 C3.618125 5.58125 4.29875 5.7875 5 6 C5.33 6.66 5.66 7.32 6 8 C5.67 8.66 5.34 9.32 5 10 C2.13302508 8.71480435 0.02392288 7.42870746 -2 5 C-2 4.34 -2 3.68 -2 3 C-1.34 3 -0.68 3 0 3 C0 2.01 0 1.02 0 0 Z " fill="#112B51" transform="translate(531,620)"/>
<path d="M0 0 C2.625 -0.1875 2.625 -0.1875 5 0 C3.92598892 2.91517292 3.22189824 4.77810176 1 7 C0.01 6.67 -0.98 6.34 -2 6 C-1.34 5.34 -0.68 4.68 0 4 C-0.66 3.67 -1.32 3.34 -2 3 C-1.34 2.01 -0.68 1.02 0 0 Z " fill="#05112E" transform="translate(490,625)"/>
<path d="M0 0 C0.33 0.66 0.66 1.32 1 2 C3.64 2 6.28 2 9 2 C9 2.33 9 2.66 9 3 C6.03 3 3.06 3 0 3 C0 4.65 0 6.3 0 8 C-0.99 8.495 -0.99 8.495 -2 9 C-2.125 5.625 -2.125 5.625 -2 2 C-1.34 1.34 -0.68 0.68 0 0 Z " fill="#2C4767" transform="translate(447,616)"/>
<path d="M0 0 C2.125 0.9375 2.125 0.9375 4 2 C1.63707344 4.52588702 0.33537489 5.88820837 -3 7 C-2.625 4.0625 -2.625 4.0625 -2 1 C-1.34 0.67 -0.68 0.34 0 0 Z " fill="#132D52" transform="translate(743,606)"/>
<path d="M0 0 C0.66 0.33 1.32 0.66 2 1 C0.38405168 3.04119788 -1.2856382 5.04072937 -3 7 C-3.66 7 -4.32 7 -5 7 C-5.66 8.98 -6.32 10.96 -7 13 C-7.33 12.01 -7.66 11.02 -8 10 C-5.78310719 6.14096436 -3.25519625 3.02268223 0 0 Z " fill="#041032" transform="translate(660,410)"/>
<path d="M0 0 C0.99 1.32 1.98 2.64 3 4 C2.01 4.495 2.01 4.495 1 5 C0.67 5.66 0.34 6.32 0 7 C-1.32 6.34 -2.64 5.68 -4 5 C-2.68 3.35 -1.36 1.7 0 0 Z " fill="#122649" transform="translate(713,607)"/>
<path d="M0 0 C0.33 0.99 0.66 1.98 1 3 C-2.60296594 3.41176754 -3.78402067 3.1535853 -6.8125 1 C-7.534375 0.34 -8.25625 -0.32 -9 -1 C-5.28390294 -2.03224918 -3.21421745 -2.29586961 0 0 Z " fill="#0F274C" transform="translate(548,608)"/>
<path d="M0 0 C0.36923077 5.53846154 0.36923077 5.53846154 -1.5 7.875 C-2.2425 8.431875 -2.2425 8.431875 -3 9 C-4 8 -4 8 -4.25 5.0625 C-4.1675 4.051875 -4.085 3.04125 -4 2 C-1 0 -1 0 0 0 Z " fill="#19395E" transform="translate(506,617)"/>
<path d="M0 0 C2 1.0625 2 1.0625 4 3 C4.25 6.6875 4.25 6.6875 4 10 C3.01 9.67 2.02 9.34 1 9 C1 7.68 1 6.36 1 5 C0.69595322 3.32774271 0.36871088 1.65919896 0 0 Z " fill="#092247" transform="translate(639,607)"/>
<path d="M0 0 C1.65 0 3.3 0 5 0 C5.33 1.98 5.66 3.96 6 6 C5.01 6 4.02 6 3 6 C0 2.66666667 0 2.66666667 0 0 Z " fill="#0F1E3F" transform="translate(506,595)"/>
<path d="M0 0 C1.32 0 2.64 0 4 0 C4.33 1.32 4.66 2.64 5 4 C3.1875 5.0625 3.1875 5.0625 1 6 C0.01 5.67 -0.98 5.34 -2 5 C-1.34 4.67 -0.68 4.34 0 4 C0 2.68 0 1.36 0 0 Z " fill="#0B274F" transform="translate(753,625)"/>
<path d="M0 0 C1.98 0.66 3.96 1.32 6 2 C5.67 3.65 5.34 5.3 5 7 C2.81619917 5.90809958 1.57301041 4.8590123 0 3 C0 2.01 0 1.02 0 0 Z " fill="#0D274E" transform="translate(740,614)"/>
<path d="M0 0 C2.5 1.1875 2.5 1.1875 5 3 C5.3125 5.6875 5.3125 5.6875 5 8 C2.5 6.25 2.5 6.25 0 4 C0 2.68 0 1.36 0 0 Z " fill="#0E284D" transform="translate(726,607)"/>
<path d="M0 0 C1.65 0 3.3 0 5 0 C4.34 1.65 3.68 3.3 3 5 C2.01 5 1.02 5 0 5 C0 3.35 0 1.7 0 0 Z " fill="#0C1D41" transform="translate(788,594)"/>
<path d="M0 0 C1.65 0 3.3 0 5 0 C3.515 2.475 3.515 2.475 2 5 C-0.31 4.67 -2.62 4.34 -5 4 C-2 2 -2 2 0 2 C0 1.34 0 0.68 0 0 Z " fill="#0D2C54" transform="translate(487,628)"/>
<path d="M0 0 C1.21333397 2.42666795 1 4.33499722 1 7 C-0.65 7 -2.3 7 -4 7 C-2.79618552 4.50638429 -1.54571278 2.31856917 0 0 Z " fill="#2B3351" transform="translate(484,596)"/>
<path d="M0 0 C2 2 2 2 2.125 4.625 C2.08375 5.40875 2.0425 6.1925 2 7 C1.01 6.67 0.02 6.34 -1 6 C-1.042721 4.33388095 -1.04063832 2.66617115 -1 1 C-0.67 0.67 -0.34 0.34 0 0 Z " fill="#041A3D" transform="translate(572,609)"/>
<path d="M0 0 C1.60031344 3.20062687 0.03173691 5.72271806 -1 9 C-1.66 9 -2.32 9 -3 9 C-2.5020163 5.26512223 -2.12508244 3.18762365 0 0 Z " fill="#031336" transform="translate(756,521)"/>
</svg>
