<?xml version="1.0" encoding="UTF-8" standalone="no"?>
<svg xmlns="http://www.w3.org/2000/svg" viewBox="0 0 800 240" role="img" aria-labelledby="title desc">
  <title id="title">Nemocnice Obláčkov — logo (accurate vector rebuild)</title>
  <desc id="desc">Soft blue cloud above a stylized outlined hand, with wordmark and tagline.</desc>

  <defs>
    <style>
      .cloud { fill: #2D6CDF; }
      .hand { fill: none; stroke: #0F2A50; stroke-width: 5; stroke-linecap: round; stroke-linejoin: round; }
      .text { font-family: 'Inter','Segoe UI',sans-serif; font-weight: 700; fill: #0F2A50; }
      .tagline { font-family: 'Inter','Segoe UI',sans-serif; font-weight: 500; fill: #4B5B73; }
    </style>
  </defs>

  <!-- Cloud: simplified smooth shape -->
  <path class="cloud" d="M260,115c0-22-18-40-40-40c-12,0-23,6-30,15c-6-5-14-8-23-8c-22,0-40,18-40,40
        c-18,2-31,17-31,35c0,19,16,35,35,35h125c23,0,41-19,41-42C297,134,281,117,260,115z"/>

  <!-- Outlined hand below -->
  <path class="hand" d="M110,190c10-12,22-20,37-22c8-1,16,2,23,6c8,4,16,8,22,9c7,2,14,1,20-3c5-4,7-8,8-12
        c1-4-3-7-7-7c-4,1-8,2-13,3c-5,1-9,1-13-1c-3-2-4-5-2-8c2-3,5-5,8-6c8-3,16-5,24-6c8-1,15,0,22,3c9,3,15,9,19,15c4,7,5,15,3,22
        c-3,9-10,16-19,21c-9,5-20,8-32,9c-14,1-28,0-42-2c-13-2-26-2-39,1c-8,2-16,4-22,8c-4,2-9,1-11-2C96,197,102,193,110,190z"/>

  <!-- Wordmark -->
  <text class="text" x="350" y="120" font-size="40">Nemocnice Obláčkov</text>

  <!-- Tagline -->
  <text class="tagline" x="352" y="150" font-size="18">Péče s lehkostí</text>
</svg>
